<?xml version="1.0" encoding="UTF-8"?>
<svg version="1.1" viewBox="0 0 1e3 1e3" xmlns="http://www.w3.org/2000/svg">
  <title>Xiongqi logo</title>
  <path d="m500 1e3c-26.902 0-54.576-1.2146-83.024-3.6439-28.448-2.4293-56.895-6.7673-85.343-13.014-28.448-5.8997-56.432-13.882-83.952-23.946-27.211-10.064-53.03-22.905-77.458-38.521-24.428-15.27-47.155-33.489-68.182-54.659-20.717-21.169-38.806-45.636-54.267-73.399-15.77-28.11-27.675-58.129-35.714-90.057-8.0395-32.275-12.059-65.07-12.059-98.386 0-22.905 1.7007-46.677 5.102-71.317s8.0395-48.933 13.915-72.878c5.8751-24.293 12.832-47.892 20.872-70.796 8.0396-23.252 16.852-45.115 26.438-65.591-10.822-17.352-19.017-35.919-24.583-55.7-5.2566-20.128-7.8849-40.604-7.8849-61.426 0-28.457 4.7928-55.179 14.378-80.166 9.5856-24.987 22.573-46.677 38.961-65.07 16.698-18.74 36.178-33.489 58.441-44.248 22.263-10.758 46.073-16.137 71.428-16.137 23.191 0 45.609 4.8586 67.254 14.576 21.645 9.3701 40.971 22.905 57.978 40.604 25.356-9.7171 51.175-16.831 77.458-21.343 26.592-4.8586 53.339-7.2878 80.241-7.2878s53.494 2.4293 79.777 7.2878c26.592 4.5115 52.566 11.626 77.922 21.343 16.698-17.699 35.869-31.407 57.514-41.124 21.954-10.064 44.527-15.096 67.718-15.096 25.356 0 49.165 5.3791 71.428 16.137 22.573 10.758 42.208 25.507 58.905 44.248 16.698 18.393 29.839 40.083 39.425 65.07 9.5856 24.987 14.378 51.709 14.378 80.166 0 21.169-2.9375 41.818-8.8126 61.947-5.5658 20.128-13.76 38.868-24.582 56.221 9.2764 20.128 17.934 41.645 25.974 64.549 8.0396 22.905 14.997 46.33 20.872 70.276 6.1843 23.946 10.977 48.065 14.378 72.358s5.102 47.718 5.102 70.276c0 28.457-2.9375 56.568-8.8126 84.331-5.5658 27.763-14.069 54.312-25.51 79.646-14.224 31.928-31.694 59.691-52.412 83.29-20.408 23.946-43.135 44.595-68.182 61.947-24.737 17.699-51.329 32.275-79.777 43.727-28.138 11.452-57.05 20.475-86.734 27.069-29.685 6.9408-59.678 11.799-89.981 14.576-30.303 2.7763-59.833 4.1645-88.59 4.1645z" stroke-width="31.448"/>
  <circle cx="500" cy="549.76" r="427.51" fill="#fea" stroke="#000" stroke-width="50.505"/>
  <g stroke-width="18.192" aria-label="熊">
    <path d="m495.45 455.39q-2.2739 34.109-2.2739 68.218v122.79q0 25.013-15.918 34.109-15.918 6.8218-68.218 13.644-6.8218-20.465-18.192-40.931 40.931-2.2739 50.027-2.2739 11.37-2.2739 9.0958-27.287h-136.44v63.67h-47.753q2.2739-72.766 2.2739-122.79 0-50.027-2.2739-109.15zm93.231 40.931q-2.2739 25.013-2.2739 63.67 95.505-25.013 134.16-52.301 11.37 22.739 29.561 38.657-43.205 11.37-161.45 50.027v29.561q0 20.465 29.561 20.465h56.848q18.192 0 27.287-6.8218 9.0958-9.0958 18.192-43.205 22.739 11.37 50.027 15.918-20.465 47.753-31.835 59.122-11.37 11.37-43.205 11.37h-109.15q-47.753 0-47.753-36.383v-104.6q0-18.192-2.2739-45.479zm156.9-138.71q-81.862 22.739-161.45 45.479 0 38.657 20.465 38.657h70.492q15.918 0 25.013-9.0958 9.0958-11.37 11.37-36.383 20.465 9.0958 47.753 15.918-11.37 47.753-27.287 56.848-13.644 6.8218-43.205 6.8218h-104.6q-45.479 0-45.479-31.835v-97.779q0-27.287-2.2739-54.574h52.301q-2.2739 29.561-2.2739 77.314 77.314-18.192 122.79-52.301 13.644 20.465 36.383 40.931zm-352.46-52.301q-43.205 38.657-90.958 88.684 36.383-2.2739 140.98-13.644-11.37-13.644-29.561-31.835 20.465-9.0958 43.205-20.465 47.753 63.67 70.492 90.958-22.739 9.0958-40.931 22.739l-20.465-29.561q-11.37 2.2739-65.944 6.8218-54.574 4.5479-138.71 15.918-11.37-20.465-18.192-40.931 22.739-11.37 47.753-38.657 27.287-27.287 52.301-72.766 25.013 13.644 50.027 22.739zm56.848 286.52v-38.657h-136.44v38.657zm-125.07 129.61q-18.192 20.465-50.027 95.505-29.561-11.37-45.479-15.918 15.918-31.835 45.479-93.231 22.739 6.8218 50.027 13.644zm382.02-20.465q38.657 70.492 47.753 90.958-25.013 6.8218-45.479 18.192-13.644-36.383-45.479-90.958 15.918-6.8218 43.205-18.192zm-256.95-179.64v-34.109h-136.44v34.109zm122.79 188.74q15.918 61.396 20.465 84.136l-45.479 9.0958q-6.8218-20.465-18.192-86.41 18.192-4.5479 43.205-6.8218zm-134.16 6.8218q2.2739 20.465 15.918 81.862-22.739 0-47.753 6.8218-4.5479-27.287-13.644-84.136 18.192-4.5479 45.479-4.5479z" stroke-width="18.192"/>
  </g>
</svg>
