<?xml version="1.0" encoding="UTF-8"?>
<svg version="1.1" viewBox="0 0 1e3 1e3" xml:space="preserve" xmlns="http://www.w3.org/2000/svg"><title>Xiongqi logo</title><path d="m500 1e3c-26.902 0-54.576-1.2146-83.024-3.6439s-56.895-6.7673-85.343-13.014c-28.448-5.8997-56.432-13.882-83.952-23.946-27.211-10.064-53.03-22.905-77.458-38.521-24.428-15.27-47.155-33.489-68.182-54.659-20.717-21.169-38.806-45.636-54.267-73.399-15.77-28.11-27.675-58.129-35.714-90.057-8.0395-32.275-12.059-65.07-12.059-98.386 0-22.905 1.7007-46.677 5.102-71.317s8.0395-48.933 13.915-72.878c5.8751-24.293 12.832-47.892 20.872-70.796 8.0396-23.252 16.852-45.115 26.438-65.591-10.822-17.352-19.017-35.919-24.583-55.7-5.2566-20.128-7.8849-40.604-7.8849-61.426 0-28.457 4.7928-55.179 14.378-80.166 9.5856-24.987 22.573-46.677 38.961-65.07 16.698-18.74 36.178-33.489 58.441-44.248 22.263-10.758 46.073-16.137 71.428-16.137 23.191 0 45.609 4.8586 67.254 14.576 21.645 9.3701 40.971 22.905 57.978 40.604 25.356-9.7171 51.175-16.831 77.458-21.343 26.592-4.8586 53.339-7.2878 80.241-7.2878s53.494 2.4293 79.777 7.2878c26.592 4.5115 52.566 11.626 77.922 21.343 16.698-17.699 35.869-31.407 57.514-41.124 21.954-10.064 44.527-15.096 67.718-15.096 25.356 0 49.165 5.3791 71.428 16.137 22.573 10.758 42.208 25.507 58.905 44.248 16.698 18.393 29.839 40.083 39.425 65.07 9.5856 24.987 14.378 51.709 14.378 80.166 0 21.169-2.9375 41.818-8.8126 61.947-5.5658 20.128-13.76 38.868-24.582 56.221 9.2764 20.128 17.934 41.645 25.974 64.549 8.0396 22.905 14.997 46.33 20.872 70.276 6.1843 23.946 10.977 48.065 14.378 72.358s5.102 47.718 5.102 70.276c0 28.457-2.9375 56.568-8.8126 84.331-5.5658 27.763-14.069 54.312-25.51 79.646-14.224 31.928-31.694 59.691-52.412 83.29-20.408 23.946-43.135 44.595-68.182 61.947-24.737 17.699-51.329 32.275-79.777 43.727-28.138 11.452-57.05 20.475-86.734 27.069-29.685 6.9408-59.678 11.799-89.981 14.576-30.303 2.7763-59.833 4.1645-88.59 4.1645z" stroke-width="31.448"/><path d="m927.51 549.76a427.51 427.51 0 0 1-427.51 427.51 427.51 427.51 0 0 1-427.51-427.51 427.51 427.51 0 0 1 427.51-427.51 427.51 427.51 0 0 1 427.51 427.51z" fill="#fea" stroke="#000" stroke-width="50.505"/><path d="m274.73 829.36c-12.089-11.967-13.448-175.61-1.7922-215.84 4.3981-15.18 17.623-37.545 29.388-49.702 18.72-19.341 20.676-26.294 15.663-55.666-3.9481-23.131-9.0946-32.286-16.556-29.451-14.634 5.5586-29.829-13.975-23.524-30.239 4.2859-11.055 19.649-13.135 97.028-13.135 106.05 0 114.33 4.5234 114.33 62.513 0 42.121-23.267 66.679-63.175 66.679-13.563 0-39.096 4.281-56.739 9.5134-48.932 14.512-59.053 40.007-61.287 154.39-2.1707 111.13-7.3113 126.7-33.333 100.94zm111.05-327.49c2.1364-21.878-0.20806-26.176-14.275-26.176-13.863 0-16.831 5.0877-16.831 28.853 0 23.116 2.8384 28.321 14.275 26.176 9.4016-1.7629 15.148-11.613 16.831-28.853zm61.325 7.6267c10.328-11.296 11.176-16.834 3.7116-24.223-17.307-17.132-30.886-10.693-30.886 14.644 0 27.729 8.0016 30.55 27.174 9.5792zm238.29 319.46c-1.7651-5.5514-4.984-51.879-7.1536-102.95-6.1213-144.1-19.067-166.68-96.745-168.76-51.425-1.3739-71.964-50.609-38.617-92.573 14.598-18.371 23.023-21.275 61.715-21.275 45.061 0 76.365 10.046 76.365 24.508 0 4.2848-22.139 7.7904-49.199 7.7904-37.145 0-50.401 3.1003-54.105 12.655-7.2519 18.707 7.6962 29.046 48.591 33.609 20.077 2.2401 46.597 12.086 59.07 21.931 21.416 16.904 22.99 22.723 29.221 108.08 3.6222 49.617 10.636 105.1 15.586 123.3 7.6602 28.16 6.9112 35.37-5.0323 48.433-16.055 17.561-34.987 20.067-39.696 5.2554zm-146.02-23.833c-2.762-10.207-5.072-29.883-5.1333-43.724-0.12162-27.413-30.967-108.06-41.329-108.06-8.3617 0-29.839 65.776-38.204 117-4.6482 28.467-10.719 41.085-20.679 42.983-18.293 3.4873-17.919-11.275 2.2152-87.316 8.8191-33.307 16.214-69.643 16.434-80.745 0.21986-11.102 5.9106-27.404 12.646-36.227 11.253-14.738 13.975-15.066 33.522-4.0373 16.194 9.1367 27.839 30.321 48.763 88.711 15.119 42.189 26.53 87.579 25.358 100.87-2.6422 29.967-26.326 37.406-33.592 10.55zm-187.34-28.652c-4.4126-7.4234 23.078-146.06 30.399-153.31 2.8901-2.8608 11.324 0.80664 18.743 8.1501 11.169 11.056 11.837 16.939 3.8844 34.216-5.2823 11.475-9.6039 28.105-9.6039 36.955 0 15.485-29.351 80.043-36.392 80.043-1.8873 0-5.0512-2.7252-7.0312-6.0558zm263.67-32.749c0-8.0196-7.7479-37.291-17.217-65.048-9.4694-27.757-14.8-52.86-11.845-55.785 12.262-12.138 33.51 14.705 47.032 59.416 18.873 62.406 18.577 75.998-1.6557 75.998-10.292 0-16.314-5.383-16.314-14.581zm-9.5364-323.8c-29.92-2.632-56.861-7.2294-59.867-10.216-3.0068-2.987-7.4636-34.267-9.9039-69.511-4.8865-70.575 2.044-84.081 32.882-64.08 9.9631 6.4619 30.908 14.269 46.545 17.35 45.384 8.941 73.295 21.824 73.295 33.832 0 8.3997-14.015 11.132-57.1 11.132-54.623 0-57.1 0.82957-57.1 19.124 0 18.086 3.3517 19.337 61.737 23.046 61.849 3.929 93.483 18.601 81.497 37.8-5.7692 9.2397-21.785 9.4575-111.98 1.523zm-314.71-30.319c-18.698-7.4683-10.52-31.451 20.393-59.801 88.849-81.484 101.46-85.294 147.13-44.45 40.485 36.205 55.701 69.076 42.919 92.718-8.4947 15.712-15.749 16.837-104.69 16.244-52.558-0.35041-100.15-2.4701-105.76-4.7101zm152.95-48.52c0-11.863-5.8584-27.977-13.019-35.809-10.563-11.554-16.696-12.581-32.514-5.4472-22.786 10.277-47.049 43.648-39.975 54.979 2.6946 4.3155 23.036 7.8464 45.203 7.8464 38.242 0 40.304-1.1036 40.304-21.569z" stroke-width="2.3384"/></svg>
