<?xml version="1.0" encoding="UTF-8"?>
<svg version="1.1" viewBox="0 0 50 50" xmlns="http://www.w3.org/2000/svg">
  <title>雄</title>
  <circle cx="25" cy="25" r="24" fill="#fda" stroke="#c00" stroke-width="2"/>
  <path d="m29.562 11.438q-0.875 1.375-1.375 2.625-0.5 1.125-1 2.25h7.75q1.875 0 4.125-0.125v2.125q-2.25-0.125-4.125-0.125h-1v4.25h1.375q1.5 0 3.375-0.125v2.125q-1.875-0.125-3.375-0.125h-1.375v4.375h0.875q1.75 0 4-0.125v2.125q-2.25-0.125-4-0.125h-0.875v4.25h1.125q2.625 0 4.875-0.125v2.125q-2.25-0.125-4.875-0.125h-7.75v2.875h-2.5q0.125-2.5 0.125-5.875v-13.875q-0.25 0.625-0.75 1.5-0.5 0.75-1.375 1.875-0.75-1.125-1.75-1.75 1.25-1.5 2.125-2.875 1-1.375 1.625-2.75t1-2.75q0.5-1.375 0.875-2.625 1.375 0.5 2.875 1zm-9.5 12.125q-0.375 0.375-1 1.5-0.5 1-1.125 2.5t-1.375 3.25q-0.625 1.75-1.5 3.625 1.125-0.25 2.5-0.375 1.375-0.25 2.875-0.625-0.5-1.75-1.375-3.875 1-0.25 2-0.75 0.625 1.25 1.375 3.125 0.75 1.75 1.625 4.25-1.375 0.375-2.375 1l-0.625-1.875q-2.375 0.375-4.75 0.875-2.25 0.375-3.875 1.25-0.625-1.5-1.125-2.5 0.625-0.5 1.375-1.5 0.75-1.125 1.5-2.75 0.875-1.625 1.5-3.625 0.75-2.125 1.25-4.5 1.125 0.5 3.125 1zm-1.375-12.5q-0.75 1.375-1.125 2.875-0.25 1.5-0.5 2.625h1.125q1.875 0 4.125-0.125v2.125q-2.375-0.125-4.125-0.125h-1.5q-0.5 1.625-1 3.25-0.375 1.5-1 3-0.625 1.375-1.25 2.75t-1.375 2.875q-0.875-1.375-2-2.125 1.75-2.25 2.75-5 1-2.875 1.375-4.75h-1.125q-0.625 0-2.75 0.125v-2.25q2.125 0.125 2.875 0.125h1.625q0.25-1.125 0.5-2.625t0.375-3.375q1.375 0.25 3 0.625zm13 17.625v-4.375h-4.375v4.375zm0 6.125v-4.25h-4.375v4.25zm0-12.375v-4.25h-4.375v4.25zm1.5-11.75q0.375 0.5 1 1.625 0.75 1.125 1.375 1.875-1.25 0.5-2.375 1.125-0.5-1-1-1.75-0.375-0.875-1-1.75 1-0.5 2-1.125z" fill="#c00"/>
</svg>
