<?xml version="1.0" encoding="UTF-8"?>
<svg version="1.1" viewBox="0 0 50 50" xmlns="http://www.w3.org/2000/svg">
  <title>炮</title>
  <circle cx="25" cy="25" r="24" stroke-width="2" stroke="#c00" fill="#fda"/>
  <path d="m24.188 20.812h8.5q-0.125 2.5-0.125 4.75 0 2.125 0.125 4.5h-6.375v5.375q0 1.75 1.5 1.75h7.625q0.875 0 1.125-0.375 0.375-0.375 0.5-2.5 1.25 0.625 2.875 1-0.75 2.25-1.5 3.125-0.625 0.875-2 0.75h-9.25q-2.875 0-3-2.5zm-4 1q1.625-1.625 3.375-5 1.875-3.375 2.625-6.5 1.375 0.625 2.875 1.25-0.875 0.875-1.875 3.5h11q-0.125 3.125-0.125 8.25t-0.125 6.375-0.875 1.875q-0.625 0.5-3 1-0.25-1.375-1-2.625 1.25 0.125 1.875 0 0.75-0.125 0.75-1 0.125-0.875 0.125-3.625v-8.125h-9.625q-1.375 2.625-3.875 6.125-0.75-0.875-2.125-1.5zm-10 16.875q2.125-2.125 3.25-4.75 1.125-2.75 1.75-6.125t0.625-7.625-0.125-9.5q1.375 0.25 2.5 0.375-0.25 2.625-0.25 7.5 1.625-1.375 2.75-3.375 0.625 1.5 1.625 2.25-2.875 2.75-4.375 4-0.125 4-0.5 7 3 2.625 5.25 5.75-1 0.75-2 1.625-1.375-2.625-3.625-5-0.625 2.75-1.75 4.875-1.125 2-2.5 4-1-0.75-2.625-1zm20.125-10.5v-5.5h-4v5.5zm-16.5-10.25q-0.75 5.875-1.25 9.5-1.375-0.25-2.5-0.25 0.875-3 1.375-9.375 1 0.125 2.375 0.125z" fill="#c00"/>
</svg>
