<?xml version="1.0" encoding="UTF-8"?>
<svg version="1.1" viewBox="0 0 50 50" xmlns="http://www.w3.org/2000/svg">
  <title>鳳</title>
  <circle cx="25" cy="25" r="24" fill="#fda" stroke="#c00" stroke-width="2"/>
  <path d="m18.938 26.938h10.375q1.125 0 2.5-0.125v1.75q-1.375-0.125-2.5-0.125h-10.375v1.375h12.875q-0.25 1.75-0.375 3.25l-0.25 4.25q-0.25 1.25-0.75 1.5-0.375 0.375-2.75 0.75-0.25-1.375-1-2.5 1.75 0 2.5-0.25l0.375-5.25h-10.625v0.75h-2.125q0.125-3.125 0.125-5v-5.25q0-2-0.125-4.375h3.25q0.25-1.125 0.625-2.125 1.25 0.25 2.375 0.375-0.625 0.875-1 1.75h7.75q-0.125 1.5-0.125 2.875v2.25q0 1.5 0.125 2.375h-10.875zm15.875-16.5q-0.25 5.375-0.25 9.375 0.125 4 0.25 7.75 0.25 3.75 0.75 6.25 0.625 2.375 1.25 1.625t1-3.25q0.875 0.875 2.125 1.5-1.5 4.75-3.125 5.125-1.625 0.5-2.75-3.125-1-3.625-1.25-10.75-0.125-7.25 0-12.75h-17.375q0 10.75-0.125 14.125t-0.875 6.75q-0.625 3.25-2.25 6.25-1-0.875-2.125-1.5 2.125-3.125 2.75-6.75 0.625-3.75 0.625-7.375 0.125-3.75 0.125-7.125 0-3.5-0.125-6.125zm-7.125 3.375q1.375 0 3.5-0.25v1.875q-1.75-0.125-2.375-0.125h-9.5q-1 0-2.375 0.125v-1.875q1.75 0.25 2.25 0.25zm-8.75 8.5v1.375h8.625v-1.375zm0-3v1.375h8.625v-1.375zm-1.375 13.875q-0.5 0.75-0.75 2-0.125 1.125-0.5 2.375-1-0.5-1.75-0.5 0.625-1.375 1.25-4.375zm2.625-0.125q0.25 2.125 0.5 3.875-0.875 0-1.625 0.25-0.125-1.625-0.375-3.875 0.625-0.125 1.5-0.25zm3.375-0.125q0.375 2.25 0.625 3.5-1 0.125-1.5 0.375-0.25-1.5-0.625-3.5 0.625-0.25 1.5-0.375zm2.875-0.375q0.25 1.125 0.875 3.375-0.875 0.125-1.5 0.5-0.25-1.25-0.875-3.375 0.625-0.375 1.5-0.5z" fill="#c00"/>
</svg>
