<?xml version="1.0" encoding="UTF-8"?>
<svg version="1.1" viewBox="0 0 50 50" xmlns="http://www.w3.org/2000/svg">
  <title>妃</title>
  <circle cx="25" cy="25" r="24" fill="#fda" stroke="#c00" stroke-width="2"/>
  <path d="m17.938 10.938q-0.75 1.375-1.125 3.375-0.25 1.875-0.5 3h6.375q-0.125 1.75-0.625 4.75t-1 4.875-1.125 3.75q0.375 0.375 1 0.875t2.25 2q-1.125 1-2 2-0.75-1.25-1.5-1.875-0.625-0.75-1.125-1.125-1.125 1.625-2.75 3.375-1.5 1.625-3.375 3.5-1.5-1.625-2.375-2 1.625-0.875 3.25-2.25t3.375-3.875q-1.125-1-2.5-1.75t-2.875-1.5q0.875-1.875 1.5-4 0.625-2.25 1-4.75-1.125 0-3.375 0.125v-2.25q2.375 0.125 3.625 0.125 0.125-1.125 0.375-2.875 0.25-1.875 0.375-3.875 1.5 0.125 3.125 0.375zm19 2.5q-0.125 1.625-0.125 4.125v4.5q0 2.125 0.125 3h-9.625v9.25q-0.125 2.25 2 2.125h5q1.75 0.125 2.125-0.5 0.375-0.75 0.625-3.5 1.125 0.75 2.875 1.25-0.75 2.625-1.625 3.75-0.75 1.125-3 1h-6.875q-2.375 0.125-3-0.75-0.5-0.75-0.375-1.75v-9.75q0-1.875-0.125-3.125h9.625v-7.625h-7.375q-1.875 0-3 0.125v-2.25q1 0 2.875 0.125zm-22.75 13.625q1 0.5 1.625 1 0.625 0.375 2.125 1.25 1-2.5 1.375-4.875 0.5-2.5 0.875-5.125h-4.25q-0.375 1.875-0.875 3.875-0.375 2-0.875 3.875z" fill="#c00"/>
</svg>
