<?xml version="1.0" encoding="UTF-8"?>
<svg version="1.1" viewBox="0 0 50 50" xmlns="http://www.w3.org/2000/svg">
  <title>傌</title>
  <circle cx="25" cy="25" r="24" stroke-width="2" stroke="#c00" fill="#fda"/>
  <path d="m38.938 14.438q-2-0.25-4-0.25h-3.875v2.75h3.25q1.25 0 2.75-0.125v2.25q-1.375-0.125-2.5-0.125h-3.5v2.75h3.375q1.375 0 2.875-0.125v2.125q-1.5-0.125-2.75-0.125h-3.5v2.625h8.75q-1 11-1.5 11.75-0.375 0.875-1.625 1.125t-2.625 0.5q-0.25-1.125-1.125-2.75 1.5 0.125 2.375 0 0.875 0 1-0.5 0.25-0.625 1-8.25h-14.25v1.125h-2.25q0.125-3.75 0.125-5.75v-7.125q0-2.125-0.125-4h13.125q3.625 0 5-0.125zm-24.125 24.625q0.125-2.875 0.125-5.125v-12.375q-1 1.75-2.75 4.125-1-1-2-1.625 1.5-1.625 3.625-5.5t3-8.125q1.25 0.5 3.25 1.25-0.875 0.75-2.875 5.875v16.25q0 2.125 0.125 5.25zm14.125-17.375v-2.75h-5.875v2.75zm0-4.75v-2.75h-5.875v2.75zm0 9.25v-2.625h-5.875v2.625zm-8.625 11q-1.375-0.625-2.375-0.875 0.875-1.25 1.625-2.75 0.75-1.625 1.125-2.875 1.125 0.5 2.75 1-0.75 0.625-1.5 2.125-0.625 1.375-1.625 3.375zm5-0.25q-0.25-1.25-1.5-5 0.75-0.375 2-0.875 0.5 1.125 0.875 2.375 0.5 1.125 1 2.625-1.25 0.375-2.375 0.875zm8.375-7.875q0.875 1.5 1.375 2.625t0.875 2.125q-1.25 0.375-2.125 1-0.375-1.25-2.125-4.75 0.875-0.5 2-1zm-4.25 6.75q-0.875-3-1.75-4.75 0.875-0.375 2-0.875 0.625 1.125 1 2.375 0.5 1.125 1 2.25-1.25 0.5-2.25 1z" fill="#c00"/>
</svg>
