<?xml version="1.0" encoding="UTF-8"?>
<svg version="1.1" viewBox="0 0 50 50" xmlns="http://www.w3.org/2000/svg">
  <title>仼</title>
  <circle cx="25" cy="25" r="24" fill="#fda" stroke="#c00" stroke-width="2"/>
  <path d="m33.5 13q2.125 0 4.75-0.125v2.375q-2.75-0.125-4.75-0.125h-3.125v7.875h2.375q2 0 4.5-0.125v2.25q-2.75-0.125-4.5-0.125h-2.375v9.375h4.625q2.375 0 4.625-0.125v2.375q-2.375-0.125-4.625-0.125h-10.625q-2.625 0-5.5 0.125v-2.375q3 0.125 5.5 0.125h3.375v-9.375h-2.625q-1.75 0-4.375 0.125v-2.25q2.625 0.125 4.375 0.125h2.625v-7.875h-2.875q-2.25 0-4.625 0.125v-2.375q2.375 0.125 4.625 0.125zm-13.125-2.375q-0.875 1-2.75 5.75v17.375q0 2.625 0.125 5h-2.875q0.125-2.625 0.125-5v-12.875q-2 3-2.75 4-0.75-1.125-1.875-1.875 2.25-2.375 4.25-6.375t2.75-7.125q1.75 0.875 3 1.125z" fill="#c00" aria-label="仼"/>
</svg>
