<?xml version="1.0" encoding="UTF-8"?>
<svg version="1.1" viewBox="0 0 50 50" xmlns="http://www.w3.org/2000/svg">
  <title>王</title>
  <path d="m49 25a24 24 0 0 1-24 24 24 24 0 0 1-24-24 24 24 0 0 1 24-24 24 24 0 0 1 24 24z" fill="#fda" stroke="#c00" stroke-width="2"/>
  <path d="m32.375 12.75q2.5 0 4.875-0.125v2.5q-2.375-0.125-4.875-0.125h-6v7.875h4.625q2 0 4.25-0.125v2.625q-2.25-0.125-4.25-0.125h-4.625v9.75h8q2.125 0 4.625-0.125v2.5q-2.5-0.125-4.625-0.125h-18q-2.625 0-5.375 0.125v-2.5q2.75 0.125 5.375 0.125h7.5v-9.75h-3.875q-2.5 0-5.25 0.125v-2.625q2.75 0.125 5.25 0.125h3.875v-7.875h-5.375q-2.75 0-5.75 0.125v-2.5q3 0.125 5.625 0.125z" fill="#c00"/>
</svg>
