<?xml version="1.0" encoding="UTF-8"?>
<svg version="1.1" viewBox="0 0 50 50" xmlns="http://www.w3.org/2000/svg">
  <title>兵</title>
  <circle cx="25" cy="25" r="24" stroke-width="2" stroke="#c00" fill="#fda"/>
  <path d="m34.562 10.938q0.375 1.375 1.625 2.875-3.5 0.375-7.625 0.75t-9.5 0.5v4.125h11.875q3.5 0 5.75-0.125v2.5q-2.625-0.125-5.875-0.125v6.25h3.375q2.875 0 5.125-0.125v2.5q-2.25-0.125-4.875-0.125h-18.25q-3.25 0-5.5 0.125v-2.5q2 0.125 5.875 0.125v-9.375q0-3.375-0.125-5.375 5.625 0 10.75-0.625t7.375-1.375zm-6.25 16.75v-6.25h-9.25v6.25zm-7.125 4.5q-0.625 0.5-3.25 2.875-2.625 2.25-4.5 4-1-1.25-2.125-1.75 4.5-3.5 7.375-7 1.375 1.25 2.5 1.875zm10-2q1.625 1.5 3.375 3.375t3.25 3.75q-1.5 0.75-2.5 1.75-1.25-2.125-6.125-7.25 1.125-0.75 2-1.625z" fill="#c00"/>
</svg>
