<?xml version="1.0" encoding="UTF-8"?>
<svg version="1.1" viewBox="0 0 50 50" xmlns="http://www.w3.org/2000/svg">
  <title>俥</title>
  <circle cx="25" cy="25" r="24" stroke-width="2" stroke="#c00" fill="#fda"/>
  <path d="m18.812 31.25q1.375 0.125 9.25 0.125v-2.25h-7q0.125-2.125 0.125-5 0-3-0.125-5.375h7v-2.5q-6.625 0-8.375 0.125v-2.25q1.75 0.125 8.375 0.125 0-1.75-0.125-3.75h2.75q-0.25 1.75-0.25 3.75 6.375 0 8.75-0.125v2.25q-2.375-0.125-8.75-0.125v2.5h6.75q-0.125 1.25-0.125 2.5v5.75q0 1 0.125 2.125h-6.75v2.25q7.75 0 9.25-0.125v2.25q-1.375-0.125-9.25-0.125 0 4.625 0.125 6.125h-2.625q0.125-1.625 0.125-6.125-7.75 0-9.25 0.125zm0.625-19.5q-0.75 1-2.25 5.75v16.375q0 3.5 0.125 5.5h-2.5q0.125-1.75 0.125-5.5v-12q-1 2-2.625 4-0.75-0.75-2-1.625 1.5-1.5 3.625-5.75 2.125-4.375 2.5-7.875 1.125 0.625 3 1.125zm8.625 15.375v-2.25h-4.5v2.25zm0-4.25v-2.125h-4.5v2.125zm6.625 4.25v-2.25h-4.25v2.25zm0-4.25v-2.125h-4.25v2.125z" fill="#c00"/>
</svg>
