<?xml version="1.0" encoding="UTF-8"?>
<svg version="1.1" viewBox="0 0 50 50" xmlns="http://www.w3.org/2000/svg">
  <title>熊</title>
  <circle cx="25" cy="25" r="24" fill="#fda" stroke="#000" stroke-width="2"/>
  <path d="m24.75 19.812q-0.125 1.875-0.125 3.75v6.75q0 1.375-0.875 1.875-0.875 0.375-3.75 0.75-0.375-1.125-1-2.25 2.25-0.125 2.75-0.125 0.625-0.125 0.5-1.5h-7.5v3.5h-2.625q0.125-4 0.125-6.75t-0.125-6zm5.125 2.25q-0.125 1.375-0.125 3.5 5.25-1.375 7.375-2.875 0.625 1.25 1.625 2.125-2.375 0.625-8.875 2.75v1.625q0 1.125 1.625 1.125h3.125q1 0 1.5-0.375 0.5-0.5 1-2.375 1.25 0.625 2.75 0.875-1.125 2.625-1.75 3.25t-2.375 0.625h-6q-2.625 0-2.625-2v-5.75q0-1-0.125-2.5zm8.625-7.625q-4.5 1.25-8.875 2.5 0 2.125 1.125 2.125h3.875q0.875 0 1.375-0.5 0.5-0.625 0.625-2 1.125 0.5 2.625 0.875-0.625 2.625-1.5 3.125-0.75 0.375-2.375 0.375h-5.75q-2.5 0-2.5-1.75v-5.375q0-1.5-0.125-3h2.875q-0.125 1.625-0.125 4.25 4.25-1 6.75-2.875 0.75 1.125 2 2.25zm-19.375-2.875q-2.375 2.125-5 4.875 2-0.125 7.75-0.75-0.625-0.75-1.625-1.75 1.125-0.5 2.375-1.125 2.625 3.5 3.875 5-1.25 0.5-2.25 1.25l-1.125-1.625q-0.625 0.125-3.625 0.375t-7.625 0.875q-0.625-1.125-1-2.25 1.25-0.625 2.625-2.125 1.5-1.5 2.875-4 1.375 0.75 2.75 1.25zm3.125 15.75v-2.125h-7.5v2.125zm-6.875 7.125q-1 1.125-2.75 5.25-1.625-0.625-2.5-0.875 0.875-1.75 2.5-5.125 1.25 0.375 2.75 0.75zm21-1.125q2.125 3.875 2.625 5-1.375 0.375-2.5 1-0.75-2-2.5-5 0.875-0.375 2.375-1zm-14.125-9.875v-1.875h-7.5v1.875zm6.75 10.375q0.875 3.375 1.125 4.625l-2.5 0.5q-0.375-1.125-1-4.75 1-0.25 2.375-0.375zm-7.375 0.375q0.125 1.125 0.875 4.5-1.25 0-2.625 0.375-0.25-1.5-0.75-4.625 1-0.25 2.5-0.25z"/>
</svg>
