<?xml version="1.0" encoding="UTF-8"?>
<svg width="50" height="50" version="1.1" viewBox="0 0 50 50" xmlns="http://www.w3.org/2000/svg">
  <title>砲</title>
  <circle cx="25" cy="25" r="24" fill="#fda" stroke="#000" stroke-width="2"/>
  <path d="m23.5 22.562q-1-1-2.125-1.625 1.75-2 3-4.875 1.375-2.875 2-5.625 1.375 0.875 3 1.375-1 0.875-2 3.375h11.125q-0.25 3-0.25 7.25 0 4.125-0.25 6.75-0.25 2.5-1.625 3.125-1.375 0.5-3.75 1.125-0.25-1.625-1.25-2.875 2.625-0.125 3.375-0.375 0.875-0.25 1-2.25 0.125-2.125 0.25-11h-9.375q-1 2-1.75 3.25h8.125q-0.125 2.625-0.125 4.625t0.125 4.375h-6.25v6.5q0 2 1.875 2h6q1.625 0 2-0.875 0.5-0.75 0.625-2.875 1.25 1.125 2.625 1.5-0.875 2.875-1.625 3.5t-2.75 0.625h-7.875q-2.875 0-2.875-3v-16q-0.5 0.875-1.25 2zm-4.375-8.875q1.25 0 3-0.125v2.125q-1.625-0.125-3-0.125h-2.5q-0.5 3.625-1.5 7.25h6.375q-0.125 1.875-0.125 3.75v6q0 2.125 0.125 4.75h-2.375v-1.875h-3.75v4.125h-2.25q0.125-3.75 0.125-6v-7.125q-0.75 1.625-1.375 2.625-0.875-1.375-1.75-2 1.75-2.375 2.75-5.375 1.125-3 1.5-6.125-1.625 0-3.375 0.125v-2.125q1.625 0.125 3.375 0.125zm0 19.875v-8.875h-3.75v8.875zm11.625-6.25v-5.375h-4v5.375z"/>
</svg>
