<?xml version="1.0" encoding="UTF-8"?>
<svg version="1.1" viewBox="0 0 50 50" xmlns="http://www.w3.org/2000/svg">
  <title>龍</title>
  <circle cx="25" cy="25" r="24" fill="#fda" stroke="#000" stroke-width="2"/>
  <path d="m27.5 22.188v2.75h6.25q2 0 3.625-0.125v1.875q-1.625-0.125-3.625-0.125h-6.25v2.375h6.125q2.125 0 3.75-0.125v1.875q-1.5-0.125-3.75-0.125h-6.125v2.375h6.25q2 0 3.625-0.125v1.875q-1.5-0.125-3.625-0.125h-6.25v2.5q0 0.875 1.5 0.875h6.375q1.125 0.125 1.375-0.375 0.375-0.375 0.625-2.25 1 0.875 2.25 1.125-0.625 2.125-1.125 2.625-0.375 0.5-2.125 0.5h-8.5q-2.375 0-2.375-2.125v-11.875q0-2.75-0.125-5h9.875v-2.75h-9.875q0.125-1.75 0.125-3.875 0-2.25-0.125-3.5h2.375q-0.125 1-0.125 1.5v0.375h6.625q1.625 0 3.125-0.125v1.875q-1.5-0.125-3.125-0.125h-6.625v2.25h9.875q-0.125 1.875-0.125 3.125t0.125 2.875zm-4.25 1.875q-0.125 1.25-0.125 4.875v8.125q0 1.75-1 2.125t-2.875 0.5q-0.125-0.875-0.875-2.375 1.75 0.125 2.125 0 0.5-0.125 0.5-0.625v-2.375h-7.25v5.5h-2.25q0.125-2.875 0.125-8.125t-0.125-7.625zm-3-8.5q1.125 0.625 2.125 1.25-0.75 0.875-1.25 1.75t-1.125 1.75h1.375q1.75 0 3-0.125v1.875q-1.25-0.125-3-0.125h-8q-1.875 0-3 0.125v-1.875q1.375 0.125 3.125 0.125h4.875q0.5-1 1-2.125t0.875-2.625zm-3.125-1.75q-0.625-1.625-1.375-2.5 1.125-0.5 2.5-1.125 0.5 1 1.375 2.625-1.25 0.5-2.25 1h3.5q1.75 0 3-0.125v1.875q-1.375-0.125-3-0.125h-7.375q-1.5 0-2.75 0.125v-1.875q1.375 0.125 2.875 0.125zm3.875 18.875v-2.75h-7.25v2.75zm0-4.375v-2.625h-7.25v2.625zm-6.125-12.25q0.875 1.5 1.5 3-1 0.375-1.875 0.875-0.625-1.375-1.5-2.875 0.875-0.375 1.875-1z"/>
</svg>
