<?xml version="1.0" encoding="UTF-8"?>
<svg version="1.1" viewBox="0 0 50 50" xmlns="http://www.w3.org/2000/svg">
  <title>騛</title>
  <circle cx="25" cy="25" r="24" fill="#fda" stroke="#000" stroke-width="2"/>
  <path d="m23.75 19.875q-0.625-0.875-1.25-1.5 1.125-0.625 2.25-1.375 1.125-0.875 2.25-2.375 0.625 0.75 1.625 1.75-1 0.5-1.5 1v6.5h2.25v-7q0-2.125-0.125-3.25h2q-0.125 1.375-0.125 3.125v7.125h3.25q-0.25 1.25-0.25 2.625v2.375q0.625-0.625 1.25-1.5 0.625-1 1.125-2 0.875 0.75 1.875 1.375-0.875 0.625-1.625 1.375-0.625 0.75-1.125 1.25 1.375 0.75 3 1.5-0.625 0.875-0.875 1.75-1.125-0.75-2-1.25-0.875-0.625-1.625-1 0.125 2 0.625 3.375t1.375 2.25q0.875 1 1.25-0.125 0.375-1 0.625-2.75 0.875 0.875 2 1.25-0.5 1.625-1.125 2.875-0.5 1.375-1.375 1.5-0.875 0.25-2.125-0.75-1.25-0.875-2.125-3-0.875-2.25-0.875-5.25v-4.25h-1.25v9.25q0 1.625 0.125 3.375h-2.125q0.125-1.5 0.25-3.125v-9.5h-2.25q0 4-0.5 6.375-0.375 2.25-1 3.75t-1.875 3.375q-0.75-0.75-1.875-1.25 2.125-2.625 2.75-5.125 0.625-2.625 0.75-5.125v-2q-1.25 0-2 0.125v-1.875q1.125 0.125 2 0.125v-5.25q-0.875 0.625-1.625 1.25zm-5.875 18.25q-0.375-1.375-1.125-2.5h1.625q0.875 0 1.375-0.125t0.625-1.5q0.125-1.5 0.125-7.375h-6.625v0.75h-2.125q0.125-2.125 0.125-4.5v-7.75q0-2.75-0.125-4h7.25q1.75 0 3.25-0.125v2q-1.5-0.125-3-0.125h-1.25v2.875q2.5 0 3.625-0.125v1.875q-0.875-0.125-3.625-0.125v2.875q2.125 0 3.625-0.125v1.875q-1.625-0.125-3.625-0.125v3.125h4.625q-0.125 1.125-0.25 4.875t-0.25 5.125q0 1.375-0.375 1.875t-1.5 0.75-2.375 0.5zm16.625-20.25q0.25 2 0.625 3t1 1.5q0.625 0.375 1 0 0.5-0.5 0.875-1.875 0.75 0.75 1.875 1.25-0.625 1.5-1 2-0.25 0.5-0.75 0.875-0.5 0.25-1.375 0.125t-2.25-1.25q-1.25-1.25-1.75-5.75v-4.75h-5.75q-2.25 0-3.5 0.125v-2q1 0.125 3.625 0.125h7.5q-0.125 1.375-0.125 2.875v1.25q0.625-0.625 1.125-1.25t1-1.5q0.875 0.75 1.875 1.5-0.75 0.5-1.625 1.125-0.75 0.625-1.625 1.375 0.75 0.5 1.625 1t2 1.25q-0.875 0.875-1.375 1.625-0.875-0.875-1.75-1.5-0.875-0.75-1.25-1.125zm-24 14q0.25-1 0.5-3.25 0.875 0.125 1.625 0.25-0.375 1.875-0.625 3.375-0.125 1.375-0.375 2.625-0.625-0.125-1.625-0.25zm5.75-6.875v-3.125h-2.375v3.125zm-2.75 9.5q0-2.125-0.125-3.25 0-1.25 0-2.375h1.25q0 1.5 0 2.875 0.125 1.375 0.125 2.75zm4.5-6q0.75-0.125 1.25-0.25 0.125 1.5 0.25 2.875 0.125 1.25 0.25 2.75-0.5 0-1.25 0.25-0.125-1.75-0.25-2.625 0-1-0.25-3zm-1.75-12.75v-2.875h-2.375v2.875zm0 4.5v-2.875h-2.375v2.875zm0.625 8.375q0.125 1.25 0.25 2.75 0.125 1.375 0.25 2.75-0.75 0-1.375 0.125 0-1.375-0.125-2.75l-0.25-2.75q0.625-0.125 1.25-0.125z"/>
</svg>
