<?xml version="1.0" encoding="UTF-8"?>
<svg version="1.1" viewBox="0 0 50 50" xmlns="http://www.w3.org/2000/svg">
  <title>馬</title>
  <circle cx="25" cy="25" r="24" stroke-width="2" stroke="#000" fill="#fda"/>
  <path d="m27.312 13.5v2.875h4.625q1.875 0 3.625-0.125v2q-1.125-0.125-3.5-0.125h-4.75v2.625h4.625q2.5 0 3.875-0.125v2q-1.25-0.125-3.75-0.125h-4.75v2.625h11q-0.25 2.25-0.5 5.625-0.125 3.25-0.5 4.75-0.375 1.375-1.375 1.875t-2.125 0.625q-1.125 0.25-2.375 0.375-0.25-1.5-1.25-3 1 0.125 1.875 0.125 1 0 1.875-0.125 1-0.125 1.25-1.125 0.375-1.125 0.625-7.25h-18.125v0.625h-2.5q0.125-2.5 0.125-5v-7q0-2.125-0.125-3.875h16.875q3.5 0 5.375-0.125v2q-1.875-0.125-4.625-0.125zm-2.375 2.875v-2.875h-7.25v2.875zm-7.25 8.75h7.25v-2.625h-7.25zm7.25-4.375v-2.625h-7.25v2.625zm-13.25 14.125q0.875-1.375 1.375-2.75 0.625-1.5 1.125-3 1.125 0.5 2.625 0.875-0.875 1.125-1.5 2.75t-1.25 3.125q-1.125-0.625-2.375-1zm10.125 0.25q-1.375 0.125-2.375 0.375 0-1.75-0.25-3t-0.375-2.5q1-0.25 2.375-0.375 0.125 1.5 0.25 2.75 0.25 1.25 0.375 2.75zm4.375-5.75q0.25 1.25 0.5 2.625 0.375 1.25 0.75 2.5-1.5 0.25-2.375 0.625-0.25-1.75-0.625-3-0.25-1.25-0.5-2.125 1.125-0.25 2.25-0.625zm3.875 4.75q-0.125-1.125-0.5-2.25-0.25-1.125-0.375-2.5 1-0.375 2.25-0.625 0.125 1.125 0.375 2.5 0.25 1.25 0.5 2.375-0.875 0.125-2.25 0.5z"/>
</svg>
