<?xml version="1.0" encoding="UTF-8"?>
<svg version="1.1" viewBox="0 0 50 50" xmlns="http://www.w3.org/2000/svg">
  <title>玉</title>
  <path d="m49 25a24 24 0 0 1-24 24 24 24 0 0 1-24-24 24 24 0 0 1 24-24 24 24 0 0 1 24 24z" fill="#fda" stroke="#000" stroke-width="2"/>
  <path d="m32.125 12.375q2.625 0 5.125-0.125v2.375q-2.5-0.125-5.125-0.125h-5.75v8.375h4.5q2.125 0 4.375-0.125v2.625q-2.25-0.125-4.375-0.125h-4.5v10.125h8.25q2 0 4.5-0.125v2.5q-2.5-0.125-4.5-0.125h-18.25q-2.75 0-5.5 0.125v-2.5q2.75 0.125 5.5 0.125h7.375v-10.125h-4q-2.625 0-5.375 0.125v-2.625q2.75 0.125 5.375 0.125h4v-8.375h-5.625q-2.625 0-5.625 0.125v-2.375q3 0.125 5.625 0.125zm4.5 19.625q-1.25 1.25-1.75 2-1.625-1.625-6.25-4.75 0.625-0.75 1.5-2 4.875 3.5 6.5 4.75z"/>
</svg>
