<?xml version="1.0" encoding="UTF-8"?>
<svg version="1.1" viewBox="0 0 50 50" xmlns="http://www.w3.org/2000/svg">
  <title>卒</title>
  <circle cx="25" cy="25" r="24" stroke-width="2" stroke="#000" fill="#fda"/>
  <path d="m23.625 29.938q0-0.875-0.125-2.5h2.875q-0.125 1.5-0.125 2.5h9.375q2.25 0 4.125-0.125v2.375q-1.875-0.125-4-0.125h-9.5v2.5q0 2.5 0.125 5.25h-2.875q0.125-2.75 0.125-5.25v-2.5h-8.25q-2.875 0-5.125 0.125v-2.375q2.25 0.125 5.125 0.125zm1-19.75q1.625 3.375 1.875 4.25h7.625q2 0 4-0.125v2.375q-1.875-0.125-4-0.125h-18.75q-2.125 0-4.125 0.125v-2.375q2 0.125 4.125 0.125h8q-0.5-1.5-1.5-3 1.625-0.5 2.75-1.25zm-12.375 17q2.125-1.75 3.625-4.25t2.125-6q1.375 0.625 3.125 0.875-1 1.5-1.625 3.375 1.875 1.125 2.75 1.75t2.25 1.5q-1.125 1.125-1.75 2.125-1.25-1.25-2.125-1.875-0.875-0.75-2-1.5-0.875 1.375-1.625 2.5t-2.25 3q-1.375-1-2.5-1.5zm20.875-9.5q-0.75 1.125-1.75 3.25 4.375 2.75 6 4.5-1.25 0.625-1.875 1.75-1.25-1.375-2.125-2.125t-2.875-2.125q-1.5 2.875-3.25 4.75-1.125-0.75-2.5-1.25 2.125-1.875 3.375-4 1.25-2.25 2.125-5.75 1.625 0.75 2.875 1z"/>
</svg>
