<?xml version="1.0" encoding="UTF-8"?>
<svg width="50" height="50" version="1.1" viewBox="0 0 50 50" xmlns="http://www.w3.org/2000/svg">
  <title>車</title>
  <circle cx="25" cy="25" r="24" fill="#fda" stroke="#000" stroke-width="2"/>
  <path d="m26.125 13.75q9.5 0 12-0.125v2q-4-0.125-12-0.125v2.875h9.5q-0.125 1.625-0.125 5.25t0.125 5.125h-9.5v3.25q10.5 0 12.875-0.125v2.125q-2.5-0.125-12.875-0.125 0 3.125 0.125 5.875h-2.625q0.125-2.5 0.125-5.875-11 0-12.75 0.125v-2.125q2.125 0.125 12.75 0.125v-3.25h-9.75q0.125-1.375 0.125-5.125t-0.125-5.25h9.75v-2.875q-9.625 0-11.75 0.125v-2q2.375 0.125 11.75 0.125 0-2.25-0.125-3.5h2.625q-0.125 1-0.125 3.5zm-2.375 13.125v-2.5h-7.25v2.5zm9.375 0v-2.5h-7v2.5zm-9.375-4.375v-2.375h-7.25v2.375zm9.375 0v-2.375h-7v2.375z"/>
</svg>
