<?xml version="1.0" encoding="UTF-8"?>
<svg version="1.1" viewBox="0 0 50 50" xmlns="http://www.w3.org/2000/svg">
  <title>Bishop</title>
  <circle cx="25" cy="25" r="24" fill="#fda" stroke="#c00" stroke-width="2"/>
  <g fill="#fff" fill-rule="evenodd" stroke="#c00" stroke-linejoin="round" stroke-width="1.53">
    <path d="m11.61 38.603c3.3625-0.95323 10.028 0.42257 13.39-1.9654 3.3625 2.388 10.028 1.0122 13.39 1.9654 0 0 1.6366 0.53066 2.9756 1.9654-0.67448 0.95323-1.6366 0.97287-2.9756 0.49136-3.3625-0.95323-10.028 0.45205-13.39-0.98273-3.3625 1.4348-10.028 0.02948-13.39 0.98273-1.343 0.48153-2.3042 0.46187-2.9756-0.49136 1.343-1.9065 2.9756-1.9654 2.9756-1.9654z"/>
    <path d="m17.561 34.671c2.4797 2.4568 12.399 2.4568 14.878 0 0.49594-1.4741 0-1.9654 0-1.9654 0-2.4568-2.4797-3.9309-2.4797-3.9309 5.4554-1.4741 5.9513-11.301-4.9594-15.232-10.911 3.9309-10.415 13.758-4.9594 15.232 0 0-2.4797 1.4741-2.4797 3.9309 0 0-0.49594 0.49136 0 1.9654z"/>
    <path d="m27.48 11.087a2.4797 2.4568 0 1 1-4.9594 0 2.4797 2.4568 0 1 1 4.9594 0z"/>
  </g>
  <path d="m20.041 28.775h9.919m-12.399 3.9309h14.878m-7.4394-14.249v4.9136m-2.4797-2.4568h4.9594" fill="none" stroke="#c00" stroke-linecap="round" stroke-width="1.53"/>
</svg>
