<?xml version="1.0" encoding="UTF-8"?>
<svg version="1.1" viewBox="0 0 50 50" xmlns="http://www.w3.org/2000/svg">
  <title>Horse</title>
  <circle cx="25" cy="25" r="24" fill="#fda" stroke="#c00" stroke-width="2"/>
  <path d="m12.292 28.342c0.52433 0 0.78628 0.35594 0.78628 1.0674 0 0.9364-0.46777 1.4046-1.4042 1.4046-0.37465 0-0.56175-0.29981-0.56175-0.89898 0-1.0487 0.39336-1.573 1.1796-1.573m4.0445-6.8533c-0.52433 0-0.78628-0.31852-0.78628-0.95512 0-1.0112 0.59918-1.8349 1.7975-2.4715 0.52433-0.26238 1.0112-0.39336 1.4607-0.39336 0.78628 0 1.2171 0.26238 1.2919 0.78672 0 0.86113-0.67402 1.6853-2.0225 2.4715-0.67402 0.37465-1.2545 0.56176-1.7414 0.56176m25.223 20.111h-23.538c0.14969-2.5842 1.1235-5.0558 2.921-7.4151 1.3859-1.8728 2.2096-3.015 2.472-3.4271 0.52433-0.8237 0.84242-1.8162 0.95468-2.9772-2.4341 1.0487-4.3252 2.5468-5.6737 4.494l-0.78628 1.2919c-0.56175 0.89898-0.91769 1.4046-1.0674 1.5169-0.22453 0.18711-0.4682 0.2811-0.73015 0.2811-1.1609 0-1.9476-0.39336-2.3593-1.1796-0.07528-0.1127-0.1127-0.24367-0.1127-0.39336-0.37421 0.18711-0.74886 0.28066-1.1235 0.28066-1.7975 0-3.2206-1.1235-4.2692-3.3705 0.29963-1.6478 1.8725-5.4487 4.7186-11.403 0.29981-0.56175 0.52433-1.0112 0.67402-1.348 1.1235-2.5094 1.6853-4.4005 1.6853-5.6737 0-0.18741-0.11226-1.236-0.33679-3.146h0.44949c2.0221 0 3.951 0.63664 5.7859 1.91 1.0112-1.7601 1.8537-2.6402 2.5277-2.6402 1.1984 0.63664 2.0225 1.5354 2.472 2.6964l0.61789 1.8538c0.37421-0.07489 0.69273-0.11235 0.95511-0.11235 2.9959 0 5.9543 1.91 8.8754 5.7298 3.4079 4.4566 5.1119 10.561 5.1119 18.313 0 1.7601-0.07484 3.3331-0.22453 4.719" fill="#fff" stroke="#c00" stroke-width="1.5"/>
</svg>
