<?xml version="1.0" encoding="UTF-8"?>
<svg version="1.1" viewBox="0 0 50 50" xmlns="http://www.w3.org/2000/svg">
  <title>Dragon</title>
  <circle cx="25" cy="25" r="24" fill="#fda" stroke="#000" stroke-width="2"/>
  <path class="fil0" d="m7.0312 26.639c-0.52943-1.1709-0.81135-2.4145-0.49726-3.4073 0.41164-1.3011 1.568-2.2436 2.7922-2.846 0.84988-0.4182 4.9478-1.755 4.516-2.5004-0.72122-1.2458 0.69546-1.9046 1.54-2.8018 2.2527-2.3927 3.0673-3.4966 5.3431-4.866 2.1951-1.3209 5.1598-1.525 6.8286-1.4092-4.4509 0.62247-8.3141 2.8615-6.6499 4.6677 0.90853 0.98619 2.8518 0.84954 6.1733-0.32983 3.5037-1.2441 8.1093-3.4449 10.28-7.6358-0.97477 4.9832-6.823 8.0179-10.97 9.6578 1.969 0.51177 3.1286 0.83831 5.3938 1.9947 3.1722-0.80943 6.5862-0.94607 9.686 2.2492-3.2511-1.5943-5.7801-1.7423-6.6547-0.52751 1.4523 1.0619 2.4685 1.9688 3.3546 3.226 2.9869 0.92912 4.6525 1.8816 5.4738 4.5063-1.275-1.9673-2.806-2.8494-4.1925-2.2659 0.54446 1.3276 0.80043 2.7899 0.73748 4.4323 1.3013 1.0654 2.2129 2.4975 2.4309 5.9136-0.7449-2.8069-1.7619-3.8949-2.6723-3.7934-0.01766 0.09599-0.03564 0.1925-0.05519 0.28952-0.2629 1.307-0.66104 2.4114-1.1543 3.4297 1.1156 1.1557 1.7448 2.7054 1.3781 6.6748-0.10243-2.7233-0.80165-4.7536-2.3008-5.1095-0.73557 1.1444-1.9015 2.933-2.7555 4.283-0.54964 0.86892-0.81305 2.1989-0.75287 3.5954h-18.696c-1.298-7.4123 9.2004-9.9295 11.941-12.319 1.2396-1.081 2.1734-3.3485 1.7754-4.9441-0.50675-2.0325-2.0242-3.9124-3.8609-4.5879-0.77916 0.6766-1.2079 0.9874-1.5109 1.9728-0.93084 3.0278-1.4564 4.4786-5.68 6.946-1.1776 0.68784-2.3884 0.29058-3.4384 0.14614 0.65793-0.15616 1.229-0.18211 1.8872-0.33812-0.60656-0.12124-1.0829-0.6766-1.2117-1.0149 0.83052 0.49188 1.8345 0.40507 3.0126-0.26013-0.6024-0.12902-1.3859-0.44277-1.8329-0.68524 0.86546 0.04809 2.142-0.10032 2.5404-0.50676 0.32637-0.33294 0.69754-0.84524 0.81876-1.2961-0.68852 0.4163-1.528 0.04502-2.1005-0.0019 0.95333-0.17536 2.6113-1.0237 3.0253-1.7361 0.74008-1.2728 1.275-2.4495 1.4146-3.6778-1.5746 1.5236-3.2576 3.2611-4.7462 4.6926-1.7434 1.6764-3.8811 2.9296-5.9185 3.2498-1.6363 0.25719-2.0296 0.39901-3.1871 1.7104 0.56937-1.9386 2.1058-1.9956 2.9024-2.2805-1.1761-0.05704-2.352 0.05722-3.6991 0.91251 1.271-1.5964 2.5968-1.4431 3.9269-1.4258 1.3741 0.01799 3.4154-0.68559 5.008-2.3375 1.609-1.6692 2.9714-2.983 4.4775-5.3069-1.7258 0.49016-3.3722 1.4902-3.928 3.3436-0.17433-0.99465-9.62e-4 -1.9312 0.51938-2.8102-0.9056-0.09233-2.354 1.4307-3.7226 3.7695-0.01003-0.83245-0.1157-1.4668 0.22796-2.6989-1.4622 0.24352-2.3012 1.0007-3.1369 2.6989-0.36823-0.66173-0.54567-1.453 0.07386-2.3468-1.6844 0.36632-2.0958 1.7666-2.7333 3.1216-0.17451-0.73506-0.3177-1.3734-0.45728-1.7114-0.36546-0.011444-0.95212 0.57958-0.96214 2.2947zm2.0243-5.3464c-0.29091 0.14493-0.75996 0.47408-0.83295 0.99623 0.28088-0.19094 0.51973-0.02443 0.95507-0.3691 0.41248-0.32791 0.51107-0.56642 0.7245-0.65791-0.28744-0.07233-0.65758-0.06367-0.84662 0.03078zm8.786-5.3388c-0.82881 0.41439-0.96266 0.67347-1.5371 1.7913 0.86028-0.6664 1.3344-0.06055 1.9822-0.55934 0.59842-0.46076 1.0256-1.1199 1.817-1.3807-0.81842-0.20426-1.724-0.1202-2.2621 0.14875z" fill="#fff" stroke="#000" stroke-width="1.5"/>
</svg>
