<?xml version="1.0" encoding="UTF-8"?>
<svg version="1.1" viewBox="0 0 50 50" xmlns="http://www.w3.org/2000/svg">
  <title>Pawn</title>
  <circle cx="25" cy="25" r="24" fill="#fda" stroke="#000" stroke-width="2"/>
  <path d="m37.724 40.08c-0.89089-3.734-3.3561-6.8654-6.6729-8.5956 2.1208-1.7511 3.4684-4.3938 3.4684-7.3515 0-4.1912-2.7225-7.7387-6.4844-9.0103 0.28206-0.50488 0.45242-1.0771 0.45242-1.6965 0-1.935-1.5711-3.5061-3.5061-3.5061s-3.5061 1.5711-3.5061 3.5061c0 0.62282 0.20517 1.1897 0.49012 1.6965-3.7751 1.2642-6.4844 4.8097-6.4844 9.0103 0 2.9577 1.3581 5.6005 3.4684 7.3515-3.3169 1.7302-5.7821 4.8617-6.6729 8.5956z" fill="#fff" stroke="#000" stroke-linecap="round" stroke-linejoin="round" stroke-width="1.5524"/>
</svg>
